<svg width="25" height="17" viewBox="0 0 25 17" fill="none" xmlns="http://www.w3.org/2000/svg">
<path d="M15.8814 16.4229C14.8424 16.4229 13.9406 15.8054 13.1761 14.5704C12.4115 13.3354 11.8136 11.5612 11.3824 9.24803C10.9119 11.4828 10.2944 13.2373 9.52982 14.5116C8.76528 15.7858 7.84392 16.4229 6.76572 16.4229C5.0014 16.4229 3.63896 15.0507 2.67838 12.3062C1.73741 9.54208 1.14931 5.74879 0.914062 0.926323H3.70757C3.74678 3.41597 3.91341 5.67038 4.20746 7.68955C4.50151 9.68911 4.87398 11.2574 5.32486 12.3944C5.77574 13.5118 6.24623 14.0705 6.73632 14.0705C7.22641 14.0705 7.71649 13.5314 8.20658 12.4532C8.69667 11.3554 9.11815 9.90475 9.47101 8.10122C9.82388 6.29769 10.0591 4.35694 10.1767 2.27897H12.9408C12.9997 4.43536 13.1663 6.41531 13.4407 8.21884C13.7348 10.0224 14.0974 11.4534 14.5287 12.512C14.9796 13.551 15.4501 14.0705 15.9402 14.0705C16.293 14.0705 16.7243 13.7568 17.234 13.1295C17.7633 12.5022 18.2828 11.6985 18.7925 10.7183C17.087 8.77754 16.2342 6.78778 16.2342 4.74901C16.2342 3.43558 16.5381 2.40639 17.1458 1.66146C17.7731 0.896917 18.6455 0.514648 19.7629 0.514648C20.8215 0.514648 21.635 0.867512 22.2035 1.57324C22.7916 2.27897 23.0857 3.23954 23.0857 4.45496C23.0857 5.2195 22.9485 6.12126 22.674 7.16025C22.4192 8.17963 22.0565 9.20882 21.586 10.2478C22.2721 10.8555 23.1053 11.4828 24.0855 12.1297L22.7916 14.2175C22.0467 13.6882 21.2723 13.0805 20.4686 12.3944C19.7629 13.5902 19.0081 14.5606 18.2044 15.3055C17.4006 16.0505 16.6263 16.4229 15.8814 16.4229ZM18.6749 4.80782C18.6749 6.02324 19.0571 7.18966 19.8217 8.30706C20.351 6.77798 20.6156 5.52335 20.6156 4.54318C20.6156 4.03348 20.5372 3.63161 20.3804 3.33756C20.2236 3.04351 19.9981 2.89648 19.7041 2.89648C19.3904 2.89648 19.1356 3.07291 18.9395 3.42577C18.7631 3.75903 18.6749 4.21972 18.6749 4.80782Z" fill="#FFF479"/>
</svg>
